<svg viewBox="0 0 200 200" xmlns="http://www.w3.org/2000/svg">
  <path fill="#F2F4F8" d="M43.3,-73.2C57,-67.2,69.6,-57.3,75.3,-44.5C81.1,-31.6,79.9,-15.8,77.6,-1.4C75.2,13.1,71.7,26.2,66.2,39.6C60.8,52.9,53.5,66.4,42.1,73.2C30.8,80,15.4,80.1,0.3,79.6C-14.9,79.2,-29.8,78.3,-41.7,71.8C-53.7,65.4,-62.7,53.4,-70.8,40.5C-78.8,27.6,-86,13.8,-85.5,0.3C-85,-13.3,-77,-26.5,-69.3,-40.1C-61.6,-53.7,-54.3,-67.6,-42.8,-74.9C-31.4,-82.3,-15.7,-83.1,-0.4,-82.3C14.8,-81.6,29.6,-79.3,43.3,-73.2Z" transform="translate(100 100)" />
</svg>